<svg width="62" height="63" viewBox="0 0 62 63" fill="none" xmlns="http://www.w3.org/2000/svg">
<path d="M25.8333 16.4111C22.2167 10.4694 18.0833 5.30273 18.0833 5.30273C18.0833 5.30273 5.16666 21.3194 5.16666 28.5527C5.16666 34.7527 9.55832 40.1777 15.5 41.2111C15.5 40.6944 15.5 39.9194 15.5 39.4027C15.5 33.2027 20.6667 23.9027 25.8333 16.4111Z" fill="white"/>
<path d="M38.75 7.88599C38.75 7.88599 20.6667 29.8443 20.6667 39.4027C20.6667 48.961 28.675 56.9693 38.75 56.9693C48.825 56.9693 56.8333 49.2193 56.8333 39.4027C56.8333 29.586 38.75 7.88599 38.75 7.88599ZM51.4083 42.2443C51.4083 43.0193 50.8917 43.7943 50.6333 44.5693C50.1167 45.086 49.8583 45.861 49.3417 46.3777C48.825 46.8943 48.3083 47.411 47.7917 47.6693C46.7583 48.4443 45.4667 48.7027 44.6917 48.961C43.6583 49.2193 42.8833 48.961 42.3667 48.961C41.85 48.961 41.5917 48.7027 41.5917 48.7027C41.5917 48.7027 42.8833 47.411 43.4 46.8943C49.6 41.7277 48.5667 33.461 48.5667 33.461C48.5667 33.461 48.825 33.7193 49.3417 33.9777C49.8583 34.4943 50.375 35.011 50.8917 36.0443C51.4083 37.0777 51.925 38.3693 51.925 39.661C51.6667 40.6943 51.6667 41.4693 51.4083 42.2443Z" fill="white"/>
</svg>
